<?xml version="1.0" standalone="no"?>
<!DOCTYPE svg PUBLIC "-//W3C//DTD SVG 20010904//EN"
 "http://www.w3.org/TR/2001/REC-SVG-20010904/DTD/svg10.dtd">
<svg version="1.0" xmlns="http://www.w3.org/2000/svg"
 width="2690.000000pt" height="495.000000pt" viewBox="0 0 2690.000000 495.000000"
 preserveAspectRatio="xMidYMid meet">

<g transform="translate(0.000000,495.000000) scale(0.100000,-0.100000)"
fill="#000000" stroke="none">
<path d="M1670 4929 c-337 -29 -682 -97 -1011 -199 l-126 -40 -51 -107 c-437
-922 -577 -1935 -406 -2943 71 -421 257 -995 422 -1304 37 -70 37 -70 107 -93
129 -44 359 -103 530 -138 754 -153 1523 -116 2274 112 l154 47 63 130 c391
815 542 1782 424 2713 -64 500 -235 1076 -444 1492 l-46 90 -126 41 c-246 80
-578 151 -874 186 -159 19 -726 27 -890 13z m910 -113 c184 -23 401 -61 545
-96 155 -38 346 -98 363 -114 21 -21 137 -284 205 -467 271 -728 358 -1512
256 -2299 -61 -470 -205 -964 -406 -1393 l-46 -97 -111 -35 c-628 -195 -1308
-250 -1961 -159 -244 34 -532 99 -734 166 l-94 31 -49 104 c-68 144 -157 372
-211 538 -374 1155 -296 2411 217 3511 l48 101 101 31 c324 99 627 158 987
192 151 14 733 5 890 -14z"/>
<path d="M1715 4724 c-387 -39 -676 -94 -952 -179 -97 -30 -86 -14 -189 -262
-169 -407 -280 -830 -336 -1293 -32 -254 -32 -786 0 -1040 63 -515 199 -1005
391 -1415 l47 -100 170 -47 c441 -122 736 -162 1204 -162 418 0 703 34 1075
129 291 74 285 72 319 135 86 158 234 573 300 835 259 1039 158 2152 -283
3101 l-43 91 -101 31 c-140 43 -368 97 -512 121 -276 47 -361 53 -710 56 -187
2 -358 1 -380 -1z m555 -44 c369 -21 706 -79 1028 -176 l82 -25 34 -67 c18
-37 63 -141 99 -232 290 -732 388 -1519 287 -2305 -52 -410 -168 -833 -333
-1219 -83 -195 -61 -176 -265 -232 -403 -111 -823 -161 -1257 -151 -411 10
-798 71 -1160 182 l-80 24 -54 123 c-197 450 -320 916 -373 1413 -20 188 -17
783 5 965 62 510 196 996 389 1412 l40 87 72 21 c308 94 690 161 1016 179 212
12 276 12 470 1z"/>
<path d="M1942 4352 c-232 -83 -298 -390 -120 -562 43 -43 62 -49 72 -24 15
38 5 77 -28 115 -114 134 -39 351 134 388 186 40 334 -147 265 -336 -16 -45
-17 -57 -6 -93 7 -24 17 -40 24 -37 22 7 76 109 88 165 41 198 -105 389 -305
399 -52 3 -85 -2 -124 -15z"/>
<path d="M2184 3965 c-18 -44 -18 -148 1 -211 9 -30 28 -63 48 -82 29 -28 41
-33 73 -30 31 2 39 7 39 22 0 16 -7 20 -35 20 -27 1 -39 8 -57 35 -13 19 -28
52 -34 75 -10 38 -9 61 7 164 6 35 4 42 -10 42 -10 0 -23 -15 -32 -35z"/>
<path d="M2390 3934 c-11 -12 -11 -24 -2 -60 7 -24 12 -53 12 -63 0 -16 18
-31 37 -31 12 0 -4 127 -18 148 -15 20 -17 21 -29 6z"/>
<path d="M1991 3861 c-11 -11 -29 -53 -41 -93 -12 -40 -30 -103 -41 -140 -23
-78 4 -68 -244 -93 -175 -17 -325 -46 -361 -70 -47 -30 -43 -149 6 -172 32
-15 166 -38 395 -67 l180 -22 3 -73 3 -72 35 30 c79 70 174 102 374 126 366
45 496 69 510 95 14 26 12 123 -2 143 -25 33 -366 97 -524 97 -77 0 -77 0
-114 138 -44 158 -61 186 -117 190 -31 2 -47 -2 -62 -17z"/>
<path d="M2325 3741 c-3 -5 4 -12 14 -16 38 -12 71 -63 71 -109 0 -42 13 -66
37 -66 9 0 13 17 13 55 0 60 -27 128 -55 139 -25 9 -73 7 -80 -3z"/>
<path d="M2273 3613 c-7 -3 -13 -13 -13 -24 0 -14 7 -19 25 -19 18 0 25 5 25
19 0 20 -17 31 -37 24z"/>
<path d="M1000 3111 c-254 -83 -337 -154 -347 -296 -3 -45 0 -69 14 -95 23
-45 53 -53 53 -14 0 43 45 109 97 142 44 28 168 71 177 61 3 -2 -15 -114 -39
-249 -25 -135 -45 -260 -45 -278 0 -58 66 -104 121 -84 14 6 75 77 149 176 69
91 128 166 131 166 4 0 0 -26 -7 -57 -8 -32 -17 -99 -20 -150 -7 -90 -6 -91
20 -118 23 -23 34 -27 67 -22 59 8 129 46 182 99 43 43 92 126 82 137 -3 2
-23 -8 -45 -23 -82 -54 -110 -52 -110 10 0 34 61 257 109 399 17 49 31 102 31
116 0 34 -30 59 -78 66 -37 5 -42 2 -128 -78 -49 -46 -124 -120 -166 -164 -75
-77 -77 -79 -78 -50 0 17 9 64 20 105 11 41 20 100 20 129 0 46 -4 59 -27 83
-15 15 -36 28 -47 27 -12 0 -73 -17 -136 -38z"/>
<path d="M3281 3122 c-31 -16 -41 -33 -111 -202 -133 -322 -217 -462 -256
-429 -36 29 -2 172 93 389 66 151 73 176 60 189 -14 14 -104 14 -143 1 -28
-10 -36 -26 -114 -238 -87 -232 -112 -277 -171 -308 -15 -7 -37 -14 -49 -14
-25 0 -25 1 36 191 55 173 84 285 84 321 0 24 -7 32 -42 48 -43 19 -166 28
-202 14 -23 -9 -20 -31 8 -49 32 -21 49 -66 41 -107 -4 -18 -24 -94 -46 -169
-74 -258 -83 -341 -49 -416 17 -39 22 -43 55 -43 49 0 84 20 167 96 72 66 87
70 88 19 0 -31 36 -83 72 -106 47 -29 137 -22 208 17 93 51 141 115 255 348
151 307 175 396 121 443 -32 28 -59 29 -105 5z"/>
<path d="M2136 3078 c-166 -22 -326 -165 -387 -345 -17 -51 -23 -91 -24 -159
0 -81 3 -96 30 -148 67 -131 208 -166 360 -91 102 50 249 209 243 262 -3 26
-4 26 -67 -29 -81 -71 -159 -110 -232 -116 -84 -6 -126 20 -142 89 -6 25 -3
28 81 59 298 111 422 215 410 342 -10 103 -119 157 -272 136z m72 -144 c45
-31 12 -100 -72 -148 -48 -28 -183 -73 -191 -64 -8 8 25 71 64 126 37 50 114
102 151 102 14 0 36 -7 48 -16z"/>
<path d="M2097 2869 c-45 -30 -81 -68 -72 -77 7 -8 103 50 131 79 25 27 26 29
8 29 -12 0 -42 -14 -67 -31z"/>
<path d="M2202 2627 c-11 -13 -90 -52 -164 -81 -44 -17 -48 -32 -14 -47 53
-25 186 51 200 114 7 29 -4 36 -22 14z"/>
<path d="M1641 2383 c-15 -55 -13 -92 8 -139 19 -41 54 -74 78 -74 21 0 15 20
-16 56 -30 34 -41 81 -38 153 3 48 -19 51 -32 4z"/>
<path d="M1810 2284 c-6 -15 -8 -36 -4 -47 6 -20 7 -20 20 -2 16 22 18 61 4
70 -6 3 -15 -6 -20 -21z"/>
<path d="M2186 2278 c-61 -44 -134 -61 -238 -56 -48 3 -89 5 -89 4 -1 0 -7
-78 -13 -173 l-11 -172 55 -3 c39 -2 64 2 85 14 18 11 51 18 80 18 41 0 54 5
81 31 18 17 47 34 65 38 l32 6 -2 160 c-1 88 -3 160 -4 161 -1 1 -20 -12 -41
-28z"/>
<path d="M1710 2286 c0 -7 7 -19 14 -26 28 -22 49 -96 42 -143 -11 -75 13
-105 34 -41 20 60 -2 154 -48 207 -18 20 -42 23 -42 3z"/>
<path d="M1603 2268 c-19 -22 -33 -94 -27 -129 13 -66 56 -129 88 -129 15 0 4
35 -19 62 -34 40 -40 72 -27 137 12 55 4 83 -15 59z"/>
<path d="M2256 2213 c-13 -13 -5 -33 14 -33 11 0 27 -11 36 -25 21 -32 48 -34
38 -2 -3 12 -11 27 -16 34 -12 15 -64 33 -72 26z"/>
<path d="M3665 2136 c-177 -178 -448 -317 -665 -342 l-61 -7 23 -24 c30 -32
152 -91 206 -101 24 -4 43 -11 44 -17 3 -18 -152 -113 -232 -144 -141 -55
-246 -61 -400 -24 -83 20 -147 51 -221 109 l-58 47 -36 -32 c-20 -17 -44 -31
-54 -31 -11 0 -45 -13 -76 -30 -61 -32 -128 -39 -195 -20 -27 8 -45 6 -85 -9
-75 -28 -114 -32 -180 -18 -55 11 -67 10 -140 -12 -57 -17 -107 -24 -175 -24
-110 -2 -176 12 -278 59 -73 33 -217 123 -209 130 2 2 30 11 62 20 76 19 130
44 185 84 l45 33 -100 18 c-116 19 -168 36 -284 90 -120 56 -243 141 -343 238
l-88 84 0 -36 c0 -64 41 -249 82 -372 80 -241 204 -458 332 -584 36 -36 67
-63 69 -60 2 2 -9 49 -25 104 -15 54 -31 124 -35 154 l-6 55 68 -72 c37 -40
97 -92 134 -116 129 -86 333 -177 558 -250 194 -62 311 -148 479 -351 l42 -49
28 34 c186 222 293 301 499 369 350 114 590 243 707 382 23 27 43 47 45 45 7
-7 -17 -122 -43 -213 -14 -47 -22 -88 -20 -91 11 -10 143 136 199 219 137 206
255 532 282 777 4 34 5 61 3 60 -1 -1 -39 -38 -83 -82z"/>
<path d="M2280 2105 c0 -8 9 -15 19 -15 59 0 83 -122 36 -179 -14 -16 -35 -33
-45 -36 -29 -9 -26 -38 3 -30 37 11 71 40 89 76 33 64 16 163 -31 189 -30 15
-71 13 -71 -5z"/>
<path d="M1707 2104 c-12 -12 -8 -72 7 -107 17 -40 60 -87 81 -87 22 0 19 37
-5 50 -24 13 -50 61 -50 93 0 27 -22 62 -33 51z"/>
<path d="M2278 2046 c-16 -12 -25 -36 -13 -36 16 0 55 26 55 37 0 17 -20 16
-42 -1z"/>
<path d="M2205 1925 c-41 -14 -75 -47 -75 -70 0 -25 24 -21 50 8 19 22 37 30
73 34 37 5 47 9 47 24 0 23 -36 25 -95 4z"/>
<path d="M2352 1858 c-7 -7 -12 -21 -12 -31 0 -64 -95 -130 -154 -107 -54 20
-64 -13 -10 -36 88 -37 186 35 207 154 7 34 -8 43 -31 20z"/>
<path d="M2212 1851 c-11 -6 -11 -13 -3 -27 6 -11 15 -31 21 -46 10 -30 17
-33 40 -18 13 8 12 16 -9 55 -25 48 -28 50 -49 36z"/>
<path d="M1812 1830 c-113 -17 -212 -92 -212 -162 0 -40 18 -43 33 -5 16 37
67 84 114 104 18 7 66 13 106 13 55 0 78 4 87 15 8 10 9 19 4 24 -15 14 -76
19 -132 11z"/>
<path d="M1991 1799 c-37 -19 -81 -68 -81 -91 0 -16 30 -7 39 11 14 25 89 61
127 61 16 0 53 -11 81 -25 29 -13 55 -20 58 -15 19 30 -51 71 -130 77 -37 3
-61 -1 -94 -18z"/>
<path d="M1514 1776 c-52 -23 -111 -84 -130 -133 -17 -44 -17 -46 0 -59 19
-14 50 -8 40 8 -18 28 41 115 99 145 16 8 45 15 63 15 19 0 40 8 50 19 17 18
16 19 -37 19 -30 -1 -68 -7 -85 -14z"/>
<path d="M2044 1742 c-6 -4 -14 -28 -17 -54 l-7 -48 33 0 c49 0 62 13 58 57
-3 39 -14 53 -41 53 -8 0 -20 -4 -26 -8z"/>
<path d="M1803 1689 c-19 -44 -20 -51 -7 -56 9 -3 30 1 48 10 29 13 32 19 28
49 -5 32 -17 48 -37 48 -5 0 -20 -23 -32 -51z"/>
<path d="M1672 1688 c-7 -7 -12 -20 -12 -30 0 -34 -57 -85 -111 -98 -46 -11
-71 -32 -56 -47 11 -10 101 17 138 42 35 23 60 63 73 118 7 29 -10 37 -32 15z"/>
<path d="M1947 1671 c-9 -16 -38 -39 -63 -52 -39 -18 -57 -21 -114 -16 -55 5
-69 3 -74 -9 -8 -21 19 -29 99 -29 52 1 80 6 112 23 46 24 83 65 83 93 0 28
-23 23 -43 -10z"/>
<path d="M1314 1651 c-54 -33 -85 -151 -41 -159 13 -3 17 3 17 23 0 40 26 92
49 100 14 4 21 15 21 31 0 29 -6 30 -46 5z"/>
<path d="M2146 1632 c-33 -23 -50 -27 -110 -27 -79 -1 -97 -16 -40 -35 60 -20
147 3 202 53 48 44 9 51 -52 9z"/>
<path d="M1466 1642 c-4 -6 -13 -34 -21 -60 -8 -27 -24 -57 -35 -67 -27 -24
-25 -35 4 -35 43 0 88 97 68 149 -5 16 -11 20 -16 13z"/>
<path d="M1284 1085 c-10 -25 36 -104 74 -130 33 -23 38 -23 52 -9 13 14 13
17 -5 27 -40 24 -75 66 -75 90 0 14 -7 28 -16 31 -22 8 -24 8 -30 -9z"/>
<path d="M1385 1030 c-8 -13 3 -30 20 -30 21 0 65 -59 65 -89 0 -26 16 -51 32
-51 14 0 8 64 -10 100 -9 19 -32 45 -51 57 -38 26 -47 28 -56 13z"/>
<path d="M1286 974 c-12 -32 -5 -106 14 -143 34 -67 90 -96 144 -75 25 10 18
33 -11 39 -74 15 -113 59 -121 134 -5 54 -16 72 -26 45z"/>
<path d="M1418 859 c-27 -15 -22 -26 17 -33 41 -8 90 -47 111 -88 35 -67 -14
-144 -75 -118 -38 15 -80 60 -90 96 -5 20 -15 30 -31 32 -18 3 -21 0 -16 -13
3 -9 6 -25 6 -35 0 -27 46 -78 91 -100 48 -25 110 -26 138 -2 25 20 36 75 27
127 -15 76 -129 162 -178 134z"/>
<path d="M24178 4803 c-15 -2 -37 -16 -48 -30 -20 -25 -20 -38 -20 -674 l0
-649 -527 0 c-307 0 -555 -4 -593 -10 -95 -15 -203 -71 -276 -144 -72 -73
-110 -146 -124 -241 -13 -92 -13 -1377 0 -1468 14 -93 53 -170 125 -242 71
-72 159 -120 252 -140 101 -22 1157 -21 1258 0 154 33 281 128 346 261 l34 69
3 1610 c2 1302 0 1614 -11 1628 -7 10 -30 22 -52 27 -39 9 -313 11 -367 3z
m-68 -2452 l0 -650 -24 -28 -24 -28 -444 -3 c-243 -1 -453 0 -466 3 -12 3 -31
14 -42 25 -19 19 -20 36 -20 650 l0 631 25 24 24 25 486 0 485 0 0 -649z"/>
<path d="M5140 3434 c-146 -31 -278 -132 -341 -260 l-34 -69 -3 -920 c-1 -506
0 -930 3 -942 11 -45 49 -53 245 -53 188 0 229 8 244 45 3 9 6 394 6 855 0
594 3 846 11 863 6 14 22 30 36 36 16 8 165 11 472 11 427 0 450 -1 472 -19
l24 -19 5 -861 5 -860 23 -23 c22 -22 28 -23 227 -23 199 0 205 1 227 23 l23
23 3 877 c1 528 -1 902 -7 940 -15 94 -52 164 -125 238 -76 75 -176 128 -276
144 -105 16 -1159 12 -1240 -6z"/>
<path d="M7430 3434 c-150 -32 -282 -133 -343 -261 l-32 -68 0 -785 0 -785 32
-65 c58 -119 146 -196 279 -248 l69 -27 700 -3 c385 -2 710 0 723 3 12 3 31
14 42 25 18 18 20 34 20 195 0 173 0 176 -25 200 l-24 25 -626 0 c-457 0 -632
3 -648 12 -43 22 -46 36 -47 195 l0 152 558 3 c501 4 563 6 612 22 144 47 254
136 312 254 l33 67 3 363 c3 320 1 370 -14 416 -50 153 -193 274 -369 311
-100 21 -1157 20 -1255 -1z m1115 -459 l25 -24 0 -220 c0 -218 0 -220 -24
-248 l-24 -28 -486 -3 -486 -3 0 251 0 251 25 24 24 25 461 0 461 0 24 -25z"/>
<path d="M9385 3441 c-52 -22 -50 21 -53 -915 -2 -576 1 -894 8 -940 15 -97
53 -170 126 -244 73 -73 175 -126 274 -142 97 -15 392 -12 472 4 185 40 334
179 380 356 l11 45 8 -45 c31 -165 192 -314 384 -355 93 -20 395 -20 486 -1
174 37 328 171 373 325 14 48 16 163 16 963 0 891 0 908 -20 928 -29 29 -50
32 -252 28 -166 -3 -188 -5 -207 -22 -20 -19 -21 -22 -23 -877 l-3 -858 -23
-23 c-22 -22 -27 -23 -232 -23 -188 0 -211 2 -227 18 -17 17 -18 69 -23 877
l-5 859 -23 23 c-21 22 -31 23 -200 26 -197 4 -234 0 -263 -29 -19 -19 -19
-40 -19 -870 l0 -851 -29 -29 -29 -29 -192 0 c-152 0 -197 3 -220 15 -17 9
-31 17 -32 18 -2 1 -5 390 -8 864 l-5 862 -23 23 c-22 22 -29 23 -215 25 -105
1 -201 -2 -212 -6z"/>
<path d="M13255 3439 c-42 -24 -45 -36 -45 -210 0 -92 3 -175 6 -184 18 -45
22 -45 758 -45 488 0 702 -3 719 -11 40 -18 47 -50 47 -204 l0 -145 -492 0
c-522 0 -645 -7 -728 -40 -155 -61 -272 -196 -299 -344 -14 -76 -15 -614 -1
-687 33 -174 189 -324 377 -364 101 -22 1157 -21 1258 0 177 37 317 159 367
318 17 55 18 111 18 797 0 707 -1 741 -20 802 -40 131 -164 251 -309 301 -66
22 -68 22 -851 24 -562 2 -791 0 -805 -8z m1483 -1496 l2 -241 -24 -29 -24
-28 -467 0 -467 0 -19 24 c-17 21 -19 42 -19 247 0 213 1 225 20 242 11 9 30
20 43 24 12 3 231 5 487 5 l465 -2 3 -242z"/>
<path d="M15885 3443 c-156 -21 -314 -133 -382 -272 l-28 -56 -3 -941 -2 -941
21 -19 c19 -17 40 -19 203 -22 201 -4 246 4 264 43 9 19 12 249 12 871 l0 845
25 24 24 25 324 0 c310 0 325 -1 350 -20 41 -32 50 -77 42 -209 -6 -96 -4
-124 9 -155 27 -65 30 -65 249 -66 197 0 198 0 222 25 l25 24 0 223 c0 232 -6
278 -42 356 -31 66 -140 172 -217 211 -113 57 -150 61 -631 59 -239 0 -448 -3
-465 -5z"/>
<path d="M17885 3436 c-176 -41 -319 -163 -365 -313 -19 -63 -20 -91 -20 -974
0 -892 0 -909 20 -929 29 -29 50 -32 254 -28 184 3 188 4 207 27 18 22 19 52
19 873 l0 850 29 29 29 29 201 0 c197 0 200 0 228 -24 l28 -24 3 -860 c2 -856
3 -859 23 -878 19 -17 41 -19 207 -22 202 -4 223 -1 252 28 20 20 20 37 20
865 0 606 3 851 11 869 20 42 51 47 263 44 194 -3 198 -3 217 -27 18 -22 19
-51 19 -867 0 -620 3 -850 12 -869 18 -39 63 -47 265 -43 174 3 184 4 205 26
l23 23 3 886 c1 565 -1 907 -8 941 -29 157 -145 285 -316 349 -63 24 -85 26
-265 31 -239 5 -310 -5 -420 -60 -132 -66 -225 -177 -250 -298 l-11 -55 -17
66 c-36 145 -150 260 -317 320 -52 19 -84 22 -274 25 -157 3 -231 0 -275 -10z"/>
<path d="M20340 3437 c-45 -23 -51 -49 -48 -224 3 -154 4 -164 26 -185 l23
-23 720 -5 721 -5 19 -24 c17 -21 19 -40 19 -176 l0 -153 -557 -4 c-609 -5
-596 -4 -718 -66 -69 -35 -175 -144 -211 -217 l-29 -60 0 -380 0 -380 26 -55
c57 -120 152 -207 285 -258 l69 -27 579 -3 c387 -2 603 1 650 8 158 24 304
130 369 267 l32 68 0 790 0 790 -28 57 c-55 111 -151 195 -285 247 l-67 26
-785 3 c-621 2 -790 -1 -810 -11z m1480 -1491 c0 -134 -3 -252 -6 -261 -17
-43 -39 -45 -509 -45 l-447 0 -29 29 -29 29 0 214 c0 237 3 250 63 267 18 5
240 10 495 10 l462 1 0 -244z"/>
<path d="M24905 3439 c-42 -24 -45 -36 -45 -210 0 -92 3 -175 6 -184 18 -45
22 -45 758 -45 488 0 702 -3 719 -11 40 -18 47 -50 47 -204 l0 -145 -492 0
c-523 0 -644 -7 -730 -41 -150 -59 -266 -191 -297 -337 -14 -67 -15 -619 -1
-693 34 -180 202 -336 397 -368 47 -8 242 -11 648 -9 567 3 581 4 645 25 111
38 218 123 277 223 53 89 53 86 53 881 0 711 -1 739 -20 802 -40 129 -165 250
-311 300 -64 22 -69 22 -849 24 -562 2 -791 0 -805 -8z m1480 -1501 c0 -244 0
-248 -23 -270 l-23 -23 -465 0 -466 0 -19 24 c-17 21 -19 42 -19 247 0 213 1
225 20 242 11 9 30 20 43 24 12 3 231 5 487 5 l465 -2 0 -247z"/>
</g>
</svg>
