<?xml version="1.0" standalone="no"?>
<!DOCTYPE svg PUBLIC "-//W3C//DTD SVG 20010904//EN"
 "http://www.w3.org/TR/2001/REC-SVG-20010904/DTD/svg10.dtd">
<svg version="1.0" xmlns="http://www.w3.org/2000/svg"
 width="272.000000pt" height="272.000000pt" viewBox="0 0 272.000000 272.000000"
 preserveAspectRatio="xMidYMid meet">

<g transform="translate(0.000000,272.000000) scale(0.100000,-0.100000)"
fill="#000000" stroke="none">
<path d="M1057 2605 c-137 -19 -234 -40 -361 -77 l-109 -31 -42 -91 c-86 -184
-155 -410 -197 -643 -20 -113 -23 -160 -23 -398 0 -210 4 -294 18 -380 36
-225 100 -443 193 -660 47 -108 48 -109 244 -159 220 -56 336 -70 585 -70 249
-1 362 13 585 70 197 51 196 50 248 169 143 330 212 661 212 1020 0 359 -72
703 -217 1029 -55 124 -40 113 -222 162 -200 53 -309 67 -571 70 -171 2 -275
-1 -343 -11z m652 -50 c118 -17 247 -46 338 -76 60 -20 63 -22 89 -77 294
-629 307 -1381 35 -2012 -48 -112 -64 -136 -93 -143 -13 -3 -66 -17 -118 -32
-173 -47 -312 -67 -521 -72 -280 -8 -510 20 -744 92 l-82 25 -51 118 c-271
636 -267 1349 11 1979 l43 98 90 27 c108 34 315 75 444 87 124 13 427 5 559
-14z"/>
<path d="M1160 2509 c-118 -11 -286 -42 -407 -76 l-92 -25 -40 -93 c-81 -183
-143 -403 -178 -625 -24 -158 -24 -508 0 -670 34 -222 113 -496 185 -640 l37
-75 80 -23 c44 -12 141 -34 215 -49 125 -25 155 -27 400 -27 234 -1 279 2 385
22 171 32 307 71 327 93 21 25 109 248 142 364 154 530 116 1123 -105 1631
l-40 91 -74 22 c-260 75 -561 104 -835 80z m385 -19 c66 -6 158 -17 205 -25
78 -14 297 -69 304 -77 10 -10 77 -176 104 -253 160 -465 172 -982 34 -1455
-26 -87 -89 -254 -118 -311 -23 -46 -25 -47 -106 -69 -122 -33 -248 -57 -376
-70 -141 -16 -449 -8 -582 15 -114 19 -318 71 -335 85 -17 14 -108 246 -140
355 -154 533 -117 1108 102 1622 39 91 30 85 178 122 253 62 485 82 730 61z"/>
<path d="M1288 2310 c-20 -11 -46 -34 -59 -51 -23 -33 -36 -110 -25 -153 6
-26 52 -86 66 -86 20 0 17 33 -5 66 -70 104 28 236 141 189 68 -28 95 -86 74
-160 -8 -29 -9 -49 -2 -61 9 -15 11 -14 28 10 9 15 19 51 22 80 11 134 -124
227 -240 166z"/>
<path d="M1434 2114 c-10 -39 2 -113 21 -134 10 -11 29 -20 43 -20 14 0 22 3
18 8 -4 4 -12 7 -18 7 -35 0 -61 88 -43 144 4 12 2 21 -4 21 -6 0 -14 -12 -17
-26z"/>
<path d="M1541 2093 c1 -10 5 -29 9 -43 7 -22 8 -21 9 12 1 20 -3 40 -9 43 -5
3 -10 -2 -9 -12z"/>
<path d="M1334 2069 c-3 -6 -16 -43 -28 -82 l-22 -72 -104 -13 c-58 -7 -127
-18 -155 -25 -48 -11 -50 -14 -53 -49 -4 -49 6 -54 164 -74 71 -9 135 -22 142
-27 8 -6 11 -20 7 -34 -7 -29 -3 -29 43 1 39 26 80 35 277 61 66 9 127 21 137
26 12 7 18 21 18 45 0 44 -16 51 -180 71 -69 9 -128 19 -133 23 -4 3 -16 37
-27 75 -11 38 -25 72 -32 77 -18 11 -46 10 -54 -3z"/>
<path d="M1528 1994 c12 -8 22 -25 22 -37 0 -31 15 -54 23 -34 14 36 -14 87
-46 87 -21 0 -21 0 1 -16z"/>
<path d="M1480 1929 c0 -5 5 -7 10 -4 6 3 10 8 10 11 0 2 -4 4 -10 4 -5 0 -10
-5 -10 -11z"/>
<path d="M808 1676 c-70 -24 -130 -63 -148 -97 -14 -26 -9 -101 8 -107 6 -2
12 3 12 11 0 27 48 73 89 87 23 7 44 10 48 6 4 -4 -3 -69 -16 -144 l-23 -136
22 -18 c11 -9 28 -14 36 -11 8 3 40 39 70 79 79 106 88 108 72 25 -11 -65 -5
-97 22 -104 26 -7 99 31 124 65 20 28 15 51 -6 30 -7 -7 -21 -12 -31 -12 -17
0 -19 5 -14 41 3 23 20 88 38 145 17 56 29 109 26 118 -4 9 -18 16 -34 16 -21
0 -46 -18 -105 -77 -43 -42 -81 -74 -85 -70 -4 4 -2 28 5 52 22 81 12 126 -27
124 -9 0 -46 -11 -83 -23z"/>
<path d="M1987 1683 c-3 -5 -19 -42 -35 -84 -64 -160 -110 -239 -139 -239 -26
0 -13 74 32 184 48 116 47 132 -5 120 -36 -8 -42 -18 -85 -134 -39 -106 -55
-134 -88 -152 -36 -19 -36 7 -2 121 40 131 42 147 16 161 -22 11 -105 14 -99
3 2 -5 10 -20 17 -35 12 -24 10 -39 -18 -140 -33 -119 -38 -167 -21 -199 16
-29 43 -23 99 21 40 32 52 37 56 25 3 -8 7 -21 9 -29 3 -8 16 -22 30 -31 35
-23 86 -11 136 32 56 48 163 266 164 333 1 43 0 45 -31 48 -17 2 -33 -1 -36
-5z"/>
<path d="M1395 1661 c-103 -25 -184 -124 -193 -236 -14 -168 149 -210 276 -72
50 55 55 78 10 44 -93 -70 -170 -76 -191 -15 -7 21 5 30 68 53 175 63 240 175
130 221 -37 15 -54 16 -100 5z m63 -84 c6 -28 -35 -64 -90 -83 -27 -9 -52 -14
-55 -11 -10 11 8 45 43 81 29 30 42 37 67 34 21 -2 33 -9 35 -21z"/>
<path d="M1384 1549 c-19 -22 -19 -22 3 -10 24 12 39 31 25 31 -5 0 -17 -10
-28 -21z"/>
<path d="M1398 1407 c-49 -21 -62 -37 -30 -37 22 0 82 36 82 50 0 5 -1 10 -2
9 -2 -1 -24 -10 -50 -22z"/>
<path d="M1157 1307 c-4 -10 -7 -27 -7 -36 0 -20 39 -75 48 -67 2 3 -1 13 -9
22 -7 8 -15 34 -19 57 -4 31 -7 37 -13 24z"/>
<path d="M1204 1238 c9 -12 16 -40 16 -61 0 -23 4 -36 10 -32 23 14 -4 115
-31 115 -5 0 -3 -10 5 -22z"/>
<path d="M1241 1244 c0 -11 3 -14 6 -6 3 7 2 16 -1 19 -3 4 -6 -2 -5 -13z"/>
<path d="M1421 1241 c-16 -10 -46 -16 -87 -16 l-62 0 -6 -44 c-3 -24 -6 -64
-6 -88 l0 -45 33 5 c82 15 103 20 117 32 8 6 23 15 33 18 18 7 21 39 9 113 -7
41 -7 42 -31 25z"/>
<path d="M1125 1219 c-8 -35 9 -85 32 -93 13 -5 13 -2 -2 20 -11 17 -16 40
-13 65 4 46 -8 52 -17 8z"/>
<path d="M1480 1210 c0 -6 5 -10 11 -10 6 0 9 -8 7 -17 -2 -10 5 -26 14 -35
26 -26 22 -65 -9 -95 -26 -24 -26 -25 -5 -19 31 10 29 -18 -4 -51 -17 -17 -33
-24 -50 -20 -27 5 -33 -7 -8 -17 26 -10 68 16 86 54 10 19 13 37 8 40 -5 3 -5
11 0 20 15 23 12 86 -5 100 -8 7 -15 20 -15 30 0 10 -7 20 -15 24 -8 3 -15 1
-15 -4z"/>
<path d="M490 1197 c0 -8 11 -59 25 -113 31 -124 109 -285 169 -350 50 -54 53
-51 31 32 -8 32 -13 60 -10 62 2 3 27 -16 54 -40 62 -56 176 -116 301 -158
124 -42 164 -66 239 -145 35 -36 64 -65 66 -65 2 0 29 27 61 60 74 78 128 111
244 150 124 42 239 102 299 156 27 24 51 41 54 38 3 -3 -3 -35 -13 -70 -9 -35
-13 -64 -9 -64 5 0 29 26 54 58 48 59 111 181 140 267 21 63 45 188 38 195 -3
3 -8 -1 -10 -7 -8 -22 -126 -109 -192 -142 -35 -18 -95 -41 -133 -50 l-70 -18
35 -21 c19 -12 48 -25 66 -28 17 -4 34 -10 36 -14 7 -11 -83 -65 -139 -84 -96
-33 -221 -13 -301 48 -29 22 -35 24 -45 11 -7 -8 -20 -15 -29 -15 -9 0 -23 -6
-29 -12 -12 -12 -102 -24 -252 -33 -36 -2 -100 -7 -143 -10 -62 -6 -88 -4
-125 10 -58 22 -144 74 -137 85 2 4 25 13 49 20 25 7 52 20 61 30 14 16 11 18
-40 29 -79 18 -199 81 -277 146 -38 31 -68 49 -68 42z"/>
<path d="M1191 1139 c-1 -29 33 -79 45 -66 4 4 0 13 -9 20 -10 6 -21 26 -26
42 -9 30 -9 30 -10 4z"/>
<path d="M1441 1067 c-14 -6 -27 -18 -29 -26 -4 -11 1 -10 19 2 13 10 31 17
41 17 10 0 18 5 18 10 0 13 -20 12 -49 -3z"/>
<path d="M1450 1023 c0 -14 19 -38 25 -32 8 8 -5 39 -16 39 -5 0 -9 -3 -9 -7z"/>
<path d="M1182 1000 c-27 -17 -56 -58 -47 -68 1 -1 18 13 38 33 31 31 41 35
86 35 28 0 51 5 51 10 0 18 -93 11 -128 -10z"/>
<path d="M1350 1013 c-21 -8 -50 -34 -50 -45 0 -5 13 1 29 13 29 21 53 22 106
3 18 -6 19 -5 5 9 -17 18 -67 29 -90 20z"/>
<path d="M1084 990 c-25 -10 -64 -57 -64 -76 0 -23 17 -16 24 10 6 25 43 54
85 66 l26 8 -25 1 c-14 0 -35 -4 -46 -9z"/>
<path d="M1358 955 c-4 -19 -1 -25 12 -25 23 0 29 8 23 31 -7 27 -30 24 -35
-6z"/>
<path d="M1240 950 c-9 -17 -8 -20 10 -20 13 0 20 7 20 20 0 11 -4 20 -10 20
-5 0 -14 -9 -20 -20z"/>
<path d="M1158 920 c-11 -20 -28 -33 -48 -36 -16 -4 -30 -11 -30 -16 0 -15 52
1 77 24 21 19 37 58 25 58 -4 0 -15 -14 -24 -30z"/>
<path d="M1302 927 c-17 -16 -34 -22 -67 -22 -25 0 -45 -3 -45 -7 0 -5 20 -8
44 -8 33 0 52 6 73 24 15 13 26 27 22 30 -3 3 -15 -5 -27 -17z"/>
<path d="M981 921 c-12 -12 -21 -33 -20 -48 l0 -28 10 25 c6 13 17 33 26 42
23 26 9 34 -16 9z"/>
<path d="M1406 914 c-15 -9 -39 -14 -52 -11 -13 2 -24 0 -24 -4 0 -5 13 -9 30
-9 32 0 80 19 80 32 0 10 1 10 -34 -8z"/>
<path d="M1052 888 c-12 -34 -7 -52 8 -28 9 14 14 60 7 60 -1 0 -8 -14 -15
-32z"/>
<path d="M970 631 c0 -16 42 -61 57 -61 12 0 9 7 -11 25 -14 13 -26 29 -26 35
0 5 -4 10 -10 10 -5 0 -10 -4 -10 -9z"/>
<path d="M1048 587 c12 -13 22 -31 22 -40 0 -9 5 -17 11 -17 6 0 8 7 5 16 -3
9 -6 19 -6 24 0 12 -29 40 -42 40 -7 0 -2 -10 10 -23z"/>
<path d="M971 555 c-1 -17 7 -42 16 -55 10 -14 16 -34 15 -45 -6 -44 66 -88
107 -65 48 25 8 130 -50 130 -19 0 -18 -3 12 -23 28 -19 34 -29 34 -57 0 -29
-4 -36 -23 -38 -26 -4 -57 19 -65 49 -4 15 0 19 19 19 13 0 24 5 24 10 0 6 -8
10 -18 10 -23 0 -46 25 -60 65 l-10 30 -1 -30z"/>
</g>
</svg>
